<?xml version="1.0" encoding="utf-8"?>
<!-- Generator: Adobe Illustrator 24.1.2, SVG Export Plug-In . SVG Version: 6.00 Build 0)  -->
<svg version="1.1" id="Layer_1" xmlns="http://www.w3.org/2000/svg" xmlns:xlink="http://www.w3.org/1999/xlink" x="0px" y="0px"
	 viewBox="0 0 201 201" style="enable-background:new 0 0 201 201;" xml:space="preserve">
<style type="text/css">
	.st0{fill:#24ACA4;stroke:#000000;stroke-width:1.5;stroke-miterlimit:10;}
	.st1{enable-background:new    ;}
	.st2{fill:#B4D4CC;stroke:#000000;stroke-width:1.5;stroke-miterlimit:10;}
</style>
<circle class="st0" cx="100.5" cy="100.5" r="100"/>
<g class="st1">
	<path class="st2" d="M46.2,116.3c1.5,1.6,4.5,2.5,8.8,2.5h5.7c4.4,0,7.4-0.6,8.9-1.8c1.5-1.2,2.3-2.9,2.4-5.1
		c0-2.8,0.7-4.9,1.9-6.2c1.2-1.3,3.4-2,6.3-2h10.2c3.1,0,5.3,0.7,6.4,2c1.2,1.3,1.8,3.4,1.8,6.2c0,12.8-2.9,21.6-8.7,26.4
		c-5.8,4.8-15,7.2-27.6,7.2h-8.6c-12.8-0.1-22-2.6-27.8-7.3c-5.7-4.8-8.5-13.5-8.5-26.3V90.4c0-12.9,2.8-21.7,8.5-26.6
		c5.8-4.9,15-7.4,27.8-7.4h8.6c12.6,0,21.8,2.5,27.6,7.4c5.8,4.9,8.7,13.6,8.7,26.2c0,3.2-0.6,5.3-1.8,6.5c-1.1,1.2-3.3,1.7-6.4,1.7
		H80.2c-2.9,0-5-0.5-6.2-1.7c-1.2-1.2-1.8-3.3-2-6.5c0-2-0.7-3.7-2.3-4.9s-4.6-1.8-9-1.9H55c-4.3,0.1-7.3,0.9-8.8,2.5
		c-1.5,1.6-2.3,4.7-2.3,9.2v12.2C43.9,111.6,44.7,114.7,46.2,116.3z"/>
	<path class="st2" d="M175.2,56.4c3.1,0,5.3,0.6,6.6,1.9c1.2,1.3,1.8,3.5,1.8,6.5v10c0,3.1-0.6,5.3-1.8,6.6
		c-1.3,1.3-3.5,1.9-6.6,1.9h-17.6v54.6c0.1,2.7-0.5,4.6-1.8,5.8c-1.2,1.2-3.4,1.8-6.5,1.9h-10.6c-3.1,0.1-5.3-0.5-6.6-1.8
		c-1.3-1.3-2-3.2-2.1-5.9V83.3h-19.2c-3.2,0-5.4-0.6-6.6-1.9c-1.2-1.3-1.8-3.5-1.8-6.6v-9.2c0-3.6,0.6-6,1.8-7.3
		c1.2-1.3,3.4-1.9,6.6-1.9H175.2z"/>
</g>
</svg>
