<?xml version="1.0" encoding="utf-8"?>
<!-- Generator: Adobe Illustrator 24.1.2, SVG Export Plug-In . SVG Version: 6.00 Build 0)  -->
<svg version="1.1" id="Layer_1" xmlns="http://www.w3.org/2000/svg" xmlns:xlink="http://www.w3.org/1999/xlink" x="0px" y="0px"
	 viewBox="0 0 1000 200" style="enable-background:new 0 0 1000 200;" xml:space="preserve">
<style type="text/css">
	.st0{fill:#24ACA4;}
	.st1{fill:#B4D4CC;}
</style>
<g>
	<path class="st0" d="M104.77,190.07c-48.32,0-87.63-39.31-87.63-87.63c0-48.32,39.31-87.63,87.63-87.63s87.63,39.31,87.63,87.63
		C192.41,150.76,153.1,190.07,104.77,190.07z M113.72,64.84c-2.58,0-4.32,0.47-5.18,1.41c-0.91,0.98-1.37,2.94-1.37,5.83v7.99
		c0,2.49,0.46,4.24,1.37,5.23c0.86,0.94,2.61,1.41,5.18,1.41h17.43v48.19c0.08,2.08,0.6,3.59,1.6,4.6c0.9,0.9,2.46,1.35,4.63,1.35
		c0.18,0,0.36,0,0.55-0.01h9.23c2.52-0.08,4.25-0.56,5.12-1.43c0.99-0.91,1.42-2.37,1.34-4.48l0-48.22h16.04
		c2.54,0,4.24-0.47,5.2-1.43c0.89-0.96,1.35-2.72,1.35-5.2v-8.69c0-2.43-0.46-4.16-1.37-5.14c-0.94-0.94-2.64-1.41-5.18-1.41H113.72
		z M64.12,64.84c-10.79,0-18.76,2.1-23.67,6.25c-4.79,4.12-7.12,11.49-7.12,22.54v18.68c0,10.96,2.33,18.25,7.12,22.28
		c4.94,4,12.91,6.08,23.68,6.17h7.47c10.72,0,18.63-2.05,23.5-6.08c4.84-4,7.29-11.52,7.29-22.36c0-2.25-0.46-3.9-1.37-4.88
		c-0.82-0.97-2.6-1.5-5.01-1.5h-8.86c-2.28,0-4.03,0.53-4.92,1.5c-0.95,1.03-1.45,2.72-1.45,4.88c-0.1,2.16-0.89,3.84-2.37,5.02
		c-1.45,1.16-4.14,1.73-8.2,1.73h-4.95c-3.88,0-6.72-0.83-8.19-2.41c-1.46-1.56-2.2-4.42-2.2-8.51v-10.6c0-4.09,0.74-6.95,2.2-8.51
		c1.43-1.53,4.11-2.31,8.18-2.41h4.97c4.13,0.09,6.76,0.67,8.27,1.8c1.52,1.14,2.3,2.78,2.3,4.86c0.17,2.61,0.65,4.25,1.52,5.12
		c0.85,0.85,2.44,1.26,4.86,1.26H96c2.57,0,4.26-0.42,5.01-1.23c0.93-0.93,1.37-2.6,1.37-5.14c0-10.64-2.45-18.1-7.29-22.19
		c-4.91-4.15-12.82-6.25-23.5-6.25H64.12z"/>
	<path d="M104.77,15.56c47.98,0,86.88,38.9,86.88,86.88c0,47.98-38.9,86.88-86.88,86.88s-86.88-38.9-86.88-86.88
		C17.89,54.46,56.79,15.56,104.77,15.56 M113.72,87.46h16.68v47.44c0.09,2.35,0.69,4,1.82,5.13c1.05,1.05,2.77,1.57,5.17,1.57
		c0.19,0,0.37,0,0.57-0.01h9.21c2.69-0.09,4.61-0.61,5.65-1.65c1.13-1.04,1.65-2.69,1.56-5.04V87.46h15.29
		c2.69,0,4.61-0.52,5.73-1.65c1.04-1.13,1.56-3.04,1.56-5.73v-8.69c0-2.61-0.52-4.52-1.56-5.65c-1.13-1.13-3.04-1.65-5.73-1.65
		h-55.96c-2.78,0-4.69,0.52-5.73,1.65c-1.04,1.13-1.56,3.21-1.56,6.34v7.99c0,2.69,0.52,4.61,1.56,5.73
		C109.03,86.94,110.94,87.46,113.72,87.46 M64.12,141.51h7.47c10.95,0,18.94-2.09,23.98-6.26c5.04-4.17,7.56-11.82,7.56-22.94
		c0-2.43-0.52-4.26-1.56-5.39c-0.96-1.13-2.87-1.74-5.56-1.74h-8.86c-2.52,0-4.43,0.61-5.47,1.74c-1.04,1.13-1.65,2.95-1.65,5.39
		c-0.09,1.91-0.78,3.39-2.09,4.43c-1.3,1.04-3.91,1.56-7.73,1.56h-4.95c-3.74,0-6.34-0.78-7.65-2.17c-1.3-1.39-2-4.08-2-7.99v-10.6
		c0-3.91,0.69-6.6,2-7.99c1.3-1.39,3.91-2.09,7.65-2.17h4.95c3.82,0.09,6.43,0.61,7.82,1.65c1.39,1.04,2,2.52,2,4.26
		c0.17,2.78,0.7,4.61,1.74,5.65c1.04,1.04,2.87,1.48,5.39,1.48H96c2.69,0,4.61-0.43,5.56-1.48c1.04-1.04,1.56-2.87,1.56-5.65
		c0-10.95-2.52-18.51-7.56-22.76c-5.04-4.26-13.03-6.43-23.98-6.43h-7.47c-11.12,0-19.11,2.17-24.15,6.43
		c-4.95,4.26-7.39,11.9-7.39,23.11v18.68c0,11.12,2.43,18.68,7.39,22.85C45,139.25,52.99,141.42,64.12,141.51 M104.77,14.06
		c-48.73,0-88.38,39.65-88.38,88.38s39.65,88.38,88.38,88.38s88.38-39.65,88.38-88.38S153.51,14.06,104.77,14.06L104.77,14.06z
		 M113.72,85.96c-2.33,0-3.93-0.4-4.63-1.17c-0.76-0.83-1.17-2.46-1.17-4.72v-7.99c0-3.36,0.63-4.75,1.17-5.33
		c0.71-0.76,2.31-1.17,4.63-1.17h55.96c2.28,0,3.84,0.4,4.65,1.19c0.75,0.83,1.15,2.43,1.15,4.61v8.69c0,2.24-0.4,3.86-1.15,4.7
		c-0.81,0.79-2.38,1.19-4.65,1.19h-15.29h-1.5v1.5v47.44v0.03l0,0.03c0.07,1.88-0.28,3.15-1.08,3.88l-0.02,0.02l-0.02,0.02
		c-0.5,0.5-1.71,1.12-4.64,1.21l-9.16,0c-0.23,0.01-0.4,0.01-0.57,0.01c-1.97,0-3.35-0.38-4.11-1.13c-0.86-0.86-1.31-2.2-1.38-4.09
		V87.46v-1.5h-1.5H113.72L113.72,85.96z M64.12,140.01c-10.59-0.08-18.4-2.11-23.22-6.01c-4.59-3.86-6.83-10.96-6.83-21.69V93.63
		c0-10.82,2.24-18,6.86-21.97c4.76-4.02,12.56-6.07,23.18-6.07h7.47c10.5,0,18.24,2.04,23.01,6.08c4.66,3.94,7.03,11.21,7.03,21.62
		c0,2.3-0.38,3.84-1.12,4.59l-0.02,0.02l-0.02,0.02c-0.34,0.37-1.37,0.99-4.46,0.99h-8.86c-2.18,0-3.64-0.35-4.33-1.04
		c-0.72-0.72-1.14-2.24-1.3-4.64c-0.01-2.27-0.91-4.14-2.6-5.41c-1.64-1.23-4.4-1.85-8.69-1.95l-4.99,0
		c-4.32,0.1-7.16,0.97-8.74,2.65c-1.6,1.7-2.4,4.74-2.4,9.02v10.6c0,4.28,0.81,7.32,2.4,9.02c1.65,1.76,4.59,2.65,8.74,2.65h4.95
		c4.24,0,7.08-0.62,8.67-1.89c1.65-1.32,2.54-3.18,2.65-5.53l0-0.03v-0.03c0-1.94,0.45-3.49,1.25-4.37c0.74-0.8,2.33-1.25,4.37-1.25
		H96c2.16,0,3.77,0.44,4.42,1.21l0.02,0.02l0.02,0.02c0.76,0.83,1.17,2.34,1.17,4.37c0,10.6-2.36,17.93-7.02,21.78
		c-4.74,3.92-12.49,5.91-23.02,5.91H64.12L64.12,140.01z"/>
</g>
<g>
	<path class="st1" d="M64.12,142.26c-11.12-0.09-19.4-2.28-24.63-6.51c-5.16-4.34-7.66-12.01-7.66-23.43V93.63
		c0-11.51,2.5-19.26,7.65-23.68c5.19-4.39,13.48-6.61,24.64-6.61h7.47c11.04,0,19.28,2.22,24.46,6.61
		c5.19,4.39,7.83,12.24,7.83,23.34c0,2.96-0.58,4.98-1.78,6.18c-1.05,1.15-3,1.7-6.09,1.7h-8.86c-2.88,0-4.76-0.54-5.92-1.7
		c-1.16-1.16-1.76-3.05-1.96-6.13c0-1.65-0.56-2.85-1.7-3.7c-1.22-0.91-3.7-1.42-7.39-1.5h-4.94c-3.58,0.08-5.97,0.73-7.1,1.94
		c-1.17,1.25-1.8,3.84-1.8,7.48v10.6c0,3.64,0.62,6.23,1.79,7.48c1.17,1.25,3.69,1.93,7.1,1.93h4.95c4.56,0,6.47-0.76,7.26-1.4
		c1.14-0.91,1.73-2.18,1.8-3.88c0-2.51,0.64-4.55,1.85-5.86c1.2-1.29,3.28-1.98,6.03-1.98H96c2.9,0,5.02,0.69,6.13,2
		c1.15,1.24,1.74,3.23,1.74,5.87c0,11.3-2.63,19.22-7.83,23.52c-5.15,4.27-13.38,6.43-24.46,6.43H64.12z"/>
	<path d="M71.59,64.09c10.95,0,18.94,2.17,23.98,6.43c5.04,4.26,7.56,11.82,7.56,22.76c0,2.78-0.52,4.61-1.56,5.65
		c-0.96,1.04-2.87,1.48-5.56,1.48h-8.86c-2.52,0-4.34-0.43-5.39-1.48c-1.04-1.04-1.56-2.87-1.74-5.65c0-1.74-0.61-3.21-2-4.26
		c-1.39-1.04-4-1.56-7.82-1.65h-4.95c-3.74,0.09-6.34,0.78-7.65,2.17c-1.3,1.39-2,4.08-2,7.99v10.6c0,3.91,0.69,6.6,2,7.99
		c1.3,1.39,3.91,2.17,7.65,2.17h4.95c3.82,0,6.43-0.52,7.73-1.56c1.3-1.04,2-2.52,2.09-4.43c0-2.43,0.61-4.26,1.65-5.39
		c1.04-1.13,2.95-1.74,5.47-1.74H96c2.69,0,4.61,0.61,5.56,1.74c1.04,1.13,1.56,2.95,1.56,5.39c0,11.12-2.52,18.77-7.56,22.94
		c-5.04,4.17-13.03,6.26-23.98,6.26h-7.47c-11.12-0.09-19.11-2.26-24.15-6.34c-4.95-4.17-7.39-11.73-7.39-22.85V93.63
		c0-11.21,2.43-18.85,7.39-23.11c5.04-4.26,13.03-6.43,24.15-6.43H71.59 M71.59,62.59h-7.47c-11.34,0-19.79,2.28-25.12,6.78
		c-5.33,4.58-7.92,12.51-7.92,24.26v18.68c0,11.66,2.59,19.51,7.92,24c5.38,4.36,13.82,6.61,25.11,6.7l7.48,0
		c11.26,0,19.65-2.22,24.94-6.6c5.38-4.45,8.1-12.56,8.1-24.09c0-2.82-0.65-4.97-1.94-6.38c-1.28-1.49-3.53-2.24-6.68-2.24h-8.86
		c-2.96,0-5.24,0.77-6.58,2.22c-1.33,1.45-2.04,3.65-2.05,6.37c-0.07,1.46-0.57,2.54-1.52,3.3c-0.58,0.46-2.23,1.23-6.8,1.23h-4.95
		c-3.15,0-5.54-0.62-6.55-1.7c-0.59-0.63-1.59-2.38-1.59-6.97v-10.6c0-4.58,1-6.33,1.59-6.97c0.68-0.72,2.37-1.6,6.59-1.7l4.92,0
		c4.36,0.1,6.17,0.79,6.92,1.35c0.94,0.71,1.4,1.71,1.4,3.06v0.05l0,0.05c0.2,3.28,0.88,5.32,2.17,6.61
		c1.31,1.31,3.36,1.92,6.45,1.92H96c3.3,0,5.41-0.62,6.64-1.94c1.33-1.35,1.98-3.54,1.98-6.69c0-11.33-2.72-19.37-8.09-23.91
		C91.21,64.87,82.82,62.59,71.59,62.59L71.59,62.59z"/>
</g>
<g>
	<path class="st1" d="M137.4,142.35c-2.59,0-4.5-0.6-5.69-1.79c-1.28-1.28-1.95-3.12-2.04-5.63l0-46.72h-15.93
		c-3.05,0-5.11-0.62-6.29-1.89c-1.19-1.29-1.76-3.33-1.76-6.24v-7.99c0-3.33,0.58-5.57,1.76-6.85c1.17-1.27,3.23-1.89,6.29-1.89
		h55.96c2.96,0,5.01,0.61,6.26,1.87c1.19,1.29,1.78,3.36,1.78,6.18v8.69c0,2.92-0.58,4.96-1.76,6.24c-1.28,1.28-3.33,1.89-6.29,1.89
		h-14.54v46.69c0.09,2.54-0.5,4.38-1.8,5.59c-1.14,1.14-3.16,1.75-6.13,1.85h-9.23C137.79,142.35,137.59,142.35,137.4,142.35z"/>
	<path d="M169.68,64.09c2.69,0,4.61,0.52,5.73,1.65c1.04,1.13,1.56,3.04,1.56,5.65v8.69c0,2.69-0.52,4.61-1.56,5.73
		c-1.13,1.13-3.04,1.65-5.73,1.65h-15.29v47.44c0.09,2.35-0.43,4-1.56,5.04c-1.04,1.04-2.95,1.56-5.65,1.65h-9.21
		c-0.19,0.01-0.38,0.01-0.57,0.01c-2.4,0-4.12-0.52-5.17-1.57c-1.13-1.13-1.74-2.78-1.82-5.13V87.46h-16.68
		c-2.78,0-4.69-0.52-5.73-1.65c-1.04-1.13-1.56-3.04-1.56-5.73v-7.99c0-3.13,0.52-5.21,1.56-6.34c1.04-1.13,2.95-1.65,5.73-1.65
		H169.68 M169.68,62.59h-55.96c-3.28,0-5.51,0.7-6.84,2.13c-1.32,1.43-1.96,3.84-1.96,7.36v7.99c0,3.11,0.64,5.32,1.96,6.75
		c1.33,1.44,3.56,2.13,6.84,2.13h15.18v45.94v0.03l0,0.03c0.1,2.7,0.84,4.71,2.26,6.13c1.34,1.34,3.43,2.01,6.23,2.01
		c0.2,0,0.41,0,0.62-0.01l9.16,0c3.21-0.1,5.38-0.78,6.69-2.07c1.46-1.36,2.12-3.37,2.02-6.15V88.96h13.79
		c3.17,0,5.39-0.68,6.8-2.09l0.02-0.02l0.02-0.02c1.32-1.43,1.96-3.64,1.96-6.75v-8.69c0-3.01-0.66-5.26-1.96-6.67l-0.02-0.02
		l-0.02-0.02C175.07,63.27,172.85,62.59,169.68,62.59L169.68,62.59z"/>
</g>
<g>
	<g>
		<path class="st0" d="M244.47,146.8c-12.14-0.09-21.18-2.48-26.88-7.1c-5.62-4.74-8.35-13.1-8.35-25.57V93.7
			c0-12.56,2.73-21.02,8.34-25.84c5.67-4.79,14.71-7.21,26.9-7.21h8.17c12.06,0,21.04,2.42,26.7,7.21
			c5.66,4.78,8.53,13.35,8.53,25.46c0,3.21-0.63,5.41-1.93,6.71c-1.14,1.24-3.25,1.83-6.61,1.83h-9.69c-3.13,0-5.17-0.58-6.42-1.83
			c-1.26-1.25-1.91-3.31-2.12-6.66c0-1.8-0.64-3.16-1.89-4.1c-1.34-1.01-4.07-1.56-8.12-1.66h-5.4c-3.93,0.09-6.57,0.81-7.81,2.14
			c-1.3,1.38-1.98,4.23-1.98,8.23v11.59c0,4,0.69,6.84,1.98,8.23c1.29,1.38,4.07,2.14,7.81,2.14h5.42c5,0,7.1-0.84,7.99-1.55
			c1.26-1.01,1.91-2.41,2-4.29c0-2.73,0.69-4.94,2-6.36c1.29-1.4,3.55-2.14,6.54-2.14h9.69c3.15,0,5.45,0.75,6.65,2.17
			c1.25,1.35,1.89,3.5,1.89,6.37c0,12.34-2.87,20.97-8.54,25.66c-5.62,4.65-14.6,7.01-26.7,7.01H244.47z"/>
	</g>
	<g>
		<path d="M252.64,61.4c11.97,0,20.71,2.38,26.22,7.03c5.51,4.66,8.27,12.92,8.27,24.89c0,3.04-0.57,5.04-1.71,6.17
			c-1.04,1.14-3.13,1.62-6.08,1.62h-9.69c-2.75,0-4.75-0.48-5.89-1.62c-1.14-1.14-1.71-3.13-1.9-6.17c0-1.9-0.67-3.52-2.19-4.66
			c-1.52-1.14-4.37-1.71-8.55-1.81h-5.42c-4.08,0.1-6.94,0.85-8.36,2.38c-1.43,1.52-2.19,4.46-2.19,8.74v11.59
			c0,4.28,0.76,7.22,2.19,8.74c1.42,1.52,4.27,2.38,8.36,2.38h5.42c4.18,0,7.03-0.57,8.46-1.71c1.43-1.14,2.19-2.75,2.28-4.85
			c0-2.66,0.67-4.65,1.8-5.89c1.14-1.24,3.23-1.9,5.99-1.9h9.69c2.95,0,5.04,0.67,6.08,1.9c1.14,1.24,1.71,3.23,1.71,5.89
			c0,12.16-2.75,20.52-8.27,25.08c-5.51,4.56-14.25,6.84-26.22,6.84h-8.17c-12.16-0.09-20.9-2.47-26.41-6.94
			c-5.42-4.56-8.07-12.83-8.07-24.99V93.7c0-12.26,2.66-20.62,8.07-25.27c5.51-4.65,14.25-7.03,26.41-7.03H252.64 M252.64,59.9
			h-8.17c-12.37,0-21.58,2.48-27.38,7.38c-5.79,4.98-8.61,13.62-8.61,26.42v20.42c0,12.71,2.82,21.26,8.61,26.13
			c5.86,4.75,15.06,7.19,27.37,7.29l8.18,0c12.27,0,21.42-2.42,27.18-7.18c5.85-4.84,8.81-13.66,8.81-26.24
			c0-3.05-0.7-5.37-2.09-6.88c-1.37-1.6-3.79-2.41-7.2-2.41h-9.69c-3.2,0-5.65,0.82-7.09,2.38c-1.43,1.56-2.2,3.93-2.2,6.87
			c-0.08,1.64-0.64,2.85-1.72,3.71c-0.64,0.52-2.48,1.38-7.52,1.38h-5.42c-4.77,0-6.6-1.19-7.27-1.9c-1.15-1.22-1.78-3.96-1.78-7.71
			V97.98c0-5.06,1.11-7.01,1.78-7.71c0.76-0.81,2.64-1.79,7.3-1.9l5.38,0c3.85,0.09,6.44,0.59,7.65,1.51
			c1.07,0.8,1.59,1.93,1.59,3.46v0.05l0,0.05c0.22,3.55,0.94,5.75,2.34,7.14c1.4,1.4,3.61,2.05,6.95,2.05h9.69
			c3.57,0,5.85-0.66,7.16-2.08c1.43-1.45,2.13-3.81,2.13-7.21c0-12.34-2.96-21.1-8.8-26.04C274.03,62.39,264.88,59.9,252.64,59.9
			L252.64,59.9z"/>
	</g>
</g>
<g>
	<g>
		<path class="st0" d="M298.5,147c-2.77,0-4.82-0.65-6.11-1.94c-1.48-1.38-2.21-3.39-2.21-6.13V87.81c-0.1-3.16,0.55-5.44,1.95-6.73
			c1.24-1.24,3.42-1.9,6.66-2l8.29,0c0.29-0.01,0.6-0.02,0.9-0.02c2.07,0,3.75,0.28,4.99,0.84c3.12-0.58,6.35-0.74,9.38-0.82l1.64,0
			c0.17-0.01,0.35-0.01,0.54-0.01c2.46,0,4.29,0.63,5.6,1.94c1.33,1.44,2.02,3.62,2.12,6.68l0,6.29c0.2,3.08-0.42,5.38-1.83,6.8
			c-1.36,1.46-3.52,2.21-6.42,2.21h-0.48c-2.34,0-3.95,0.59-4.92,1.81c-0.96,1.22-1.56,3.02-1.74,5.2l0,28.92
			c0.1,2.76-0.54,4.75-1.95,6.06c-1.37,1.26-3.49,1.9-6.66,2h-9.14C298.91,146.99,298.7,147,298.5,147z"/>
	</g>
	<g>
		<path d="M307.98,79.81c2.05,0,3.73,0.29,4.89,0.87c2.94-0.57,6.08-0.76,9.5-0.85h1.62c0.18-0.01,0.36-0.01,0.54-0.01
			c2.28,0,3.92,0.57,5.07,1.72c1.14,1.23,1.8,3.23,1.9,6.17v6.27c0.19,2.94-0.38,5.03-1.62,6.27c-1.23,1.33-3.23,1.99-5.89,1.99
			h-0.48c-2.56,0-4.37,0.67-5.51,2.09c-1.04,1.33-1.71,3.23-1.9,5.61v28.98c0.09,2.56-0.48,4.37-1.71,5.51
			c-1.24,1.14-3.23,1.71-6.18,1.81h-9.12c-0.2,0.01-0.4,0.01-0.6,0.01c-2.55,0-4.43-0.57-5.58-1.72c-1.33-1.23-2-3.04-2-5.6V87.81
			c-0.1-2.94,0.48-5.04,1.71-6.18c1.14-1.14,3.23-1.71,6.17-1.8h8.27C307.39,79.82,307.69,79.81,307.98,79.81 M307.98,78.31
			c-0.3,0-0.62,0.01-0.93,0.02h-8.24c-3.47,0.11-5.81,0.84-7.21,2.22c-1.55,1.45-2.28,3.91-2.17,7.31l0,51.06
			c0,2.95,0.8,5.14,2.45,6.69c1.43,1.42,3.66,2.14,6.62,2.14c0.21,0,0.43,0,0.65-0.01l9.07,0c3.41-0.11,5.68-0.81,7.19-2.2
			c1.58-1.46,2.3-3.63,2.19-6.64v-28.89c0.17-2,0.71-3.64,1.58-4.74c0.52-0.64,1.54-1.52,4.33-1.52h0.48c3.1,0,5.45-0.83,6.97-2.45
			c1.56-1.57,2.24-4.05,2.03-7.36v-6.22c-0.11-3.3-0.86-5.63-2.3-7.19l-0.02-0.02l-0.02-0.02c-1.45-1.45-3.46-2.16-6.13-2.16
			c-0.18,0-0.37,0-0.57,0.01h-1.59c-3.03,0.08-6.22,0.24-9.31,0.79C311.75,78.59,310.04,78.31,307.98,78.31L307.98,78.31z"/>
	</g>
</g>
<g>
	<g>
		<path class="st0" d="M342.99,152.78c-2.75,0-4.84-0.64-6.21-1.91c-1.38-1.38-2.05-3.58-2.05-6.73v-1.04
			c0-3.17,0.62-5.39,1.91-6.78c1.27-1.38,3.4-2.13,6.32-2.24h26.15c2.38,0,4.13-0.67,5.21-2c0.32-0.52,0.58-1.05,0.79-1.62
			c-1.5,0.12-3.13,0.19-4.77,0.19h-3.32c-10.07,0-18.09-1.76-23.85-5.24c-5.6-3.54-8.44-9.83-8.44-18.69V87.15
			c0-2.75,0.73-4.76,2.23-6.15c1.27-1.27,3.32-1.92,6.08-1.92c0.2,0,0.41,0,0.63,0.01l9.1,0c3.2,0.1,5.31,0.74,6.68,2
			c1.42,1.31,2.05,3.3,1.95,6.09l0,18.31c0,2.52,0.53,4.29,1.56,5.24c1.09,1,2.83,1.51,5.19,1.51h0.95c2.36,0,4.1-0.51,5.19-1.51
			c1.04-0.96,1.56-2.72,1.56-5.24V87.15c-0.1-2.76,0.54-4.75,1.95-6.06c1.35-1.24,3.53-1.9,6.66-2l9.15,0
			c0.19-0.01,0.4-0.01,0.6-0.01c2.73,0,4.81,0.65,6.18,1.92c1.41,1.41,2.13,3.41,2.23,6.13l0,34.04c0,11.59-2.84,19.81-8.44,24.42
			c-5.62,4.65-13.41,7-23.83,7.2h-0.01H342.99z"/>
	</g>
	<g>
		<path d="M394.22,79.82c2.55,0,4.44,0.57,5.67,1.72c1.23,1.23,1.9,3.04,2,5.6v34.01c0,11.4-2.75,19.38-8.17,23.85
			c-5.51,4.56-13.3,6.84-23.37,7.03h-27.36c-2.56,0-4.46-0.57-5.7-1.71c-1.23-1.24-1.8-3.33-1.8-6.18v-1.04
			c0-2.94,0.57-5.04,1.71-6.27c1.14-1.24,3.13-1.9,5.79-2h26.13c2.56,0,4.56-0.76,5.79-2.28c0.48-0.76,0.95-1.71,1.24-2.95
			c-1.81,0.19-3.8,0.29-5.8,0.29h-3.32c-10.17,0-17.96-1.8-23.47-5.13c-5.42-3.42-8.08-9.41-8.08-18.05V87.15
			c0-2.56,0.67-4.37,2-5.6c1.15-1.15,3.03-1.72,5.57-1.72c0.2,0,0.4,0,0.6,0.01h9.12c2.95,0.09,4.94,0.67,6.18,1.8
			c1.23,1.14,1.8,2.95,1.71,5.51v18.34c0,2.66,0.57,4.66,1.81,5.79c1.23,1.14,3.13,1.71,5.7,1.71h0.95c2.56,0,4.46-0.57,5.7-1.71
			c1.23-1.14,1.8-3.13,1.8-5.79V87.15c-0.09-2.56,0.48-4.37,1.71-5.51c1.23-1.14,3.32-1.71,6.17-1.8h9.12
			C393.83,79.82,394.03,79.82,394.22,79.82 M394.22,78.32c-0.2,0-0.41,0-0.62,0.01h-9.1c-3.37,0.11-5.71,0.83-7.19,2.2
			c-1.58,1.46-2.3,3.63-2.19,6.64v18.31c0,2.27-0.46,3.89-1.32,4.69c-0.94,0.87-2.52,1.31-4.68,1.31h-0.95
			c-2.16,0-3.74-0.44-4.68-1.31c-0.87-0.8-1.32-2.42-1.32-4.69V87.17c0.11-3.01-0.61-5.18-2.19-6.64c-1.51-1.39-3.78-2.09-7.14-2.2
			l-9.14,0c-0.21-0.01-0.42-0.01-0.62-0.01c-2.96,0-5.18,0.72-6.62,2.14c-1.65,1.54-2.45,3.73-2.45,6.69v19.57
			c0,9.14,2.95,15.64,8.77,19.32c5.9,3.56,14.06,5.36,24.27,5.36h3.32c1.21,0,2.41-0.03,3.56-0.1c-0.07,0.13-0.14,0.26-0.22,0.38
			c-0.94,1.1-2.47,1.66-4.57,1.66h-26.13h-0.03l-0.03,0c-3.13,0.11-5.43,0.94-6.84,2.48c-1.42,1.54-2.11,3.92-2.11,7.29v1.04
			c0,3.36,0.73,5.73,2.24,7.24l0.02,0.02l0.02,0.02c1.52,1.4,3.78,2.11,6.72,2.11h27.36c10.62-0.2,18.57-2.61,24.33-7.37
			c5.78-4.77,8.71-13.18,8.71-25V87.15v-0.03l0-0.03c-0.11-2.92-0.9-5.08-2.43-6.61l-0.02-0.02l-0.02-0.02
			C399.4,79.03,397.15,78.32,394.22,78.32L394.22,78.32z"/>
	</g>
</g>
<g>
	<g>
		<path class="st0" d="M413.95,152.97c-3.06,0-5.31-0.64-6.68-1.91c-1.48-1.38-2.24-3.48-2.24-6.25v-57
			c-0.1-3.16,0.55-5.44,1.95-6.73c1.24-1.24,3.42-1.9,6.66-2l8.29,0c0.29-0.01,0.59-0.02,0.89-0.02c2.12,0,3.81,0.31,5.04,0.94
			c3.13-0.49,6.23-0.73,9.46-0.73h3.32c10.06,0.1,18.05,1.89,23.76,5.33c5.67,3.58,8.53,9.86,8.53,18.69v3.42
			c0.1,8.83-2.77,15.12-8.52,18.69c-5.87,3.48-13.86,5.24-23.77,5.24h-3.32c-1.99,0-3.83-0.07-5.62-0.22v14.38
			c0.1,2.72-0.53,4.74-1.93,6.14c-1.39,1.29-3.51,1.92-6.68,2.02h-0.01H413.95z M438.46,97.78c-2.36,0-4.1,0.51-5.19,1.51
			c-1.04,0.96-1.56,2.72-1.56,5.24v0.95c0,2.52,0.53,4.29,1.56,5.24c1.09,1,2.83,1.51,5.19,1.51h0.95c2.36,0,4.1-0.51,5.19-1.51
			c1.04-0.96,1.56-2.72,1.56-5.24v-0.95c0-2.52-0.53-4.29-1.56-5.24c-1.09-1-2.83-1.51-5.19-1.51H438.46z"/>
	</g>
	<g>
		<path d="M422.82,79.81c2.06,0,3.74,0.3,4.9,0.97c2.94-0.47,6.08-0.76,9.6-0.76h3.32c10.07,0.1,17.86,1.9,23.37,5.23
			c5.42,3.42,8.17,9.41,8.17,18.05v3.42c0.1,8.65-2.66,14.63-8.17,18.05c-5.6,3.33-13.4,5.13-23.37,5.13h-3.32
			c-2.28,0-4.37-0.09-6.37-0.29v15.2c0.09,2.57-0.48,4.37-1.71,5.61c-1.24,1.14-3.23,1.71-6.18,1.8h-9.12
			c-2.85,0-4.94-0.57-6.17-1.71c-1.33-1.24-2-3.13-2-5.7v-57c-0.1-2.94,0.48-5.04,1.71-6.18c1.14-1.14,3.23-1.71,6.17-1.8h8.27
			C422.23,79.82,422.53,79.81,422.82,79.81 M438.46,112.99h0.95c2.56,0,4.46-0.57,5.7-1.71c1.23-1.14,1.8-3.13,1.8-5.79v-0.95
			c0-2.66-0.57-4.66-1.8-5.79c-1.24-1.14-3.14-1.71-5.7-1.71h-0.95c-2.56,0-4.46,0.57-5.7,1.71c-1.24,1.14-1.81,3.13-1.81,5.79v0.95
			c0,2.66,0.57,4.66,1.81,5.79C434,112.42,435.9,112.99,438.46,112.99 M422.82,78.31c-0.3,0-0.61,0.01-0.92,0.02h-8.24
			c-3.47,0.11-5.81,0.84-7.21,2.22c-1.55,1.45-2.28,3.91-2.17,7.31l0,56.95c0,2.99,0.83,5.27,2.47,6.8c1.52,1.4,3.94,2.11,7.2,2.11
			h9.12c3.41-0.11,5.68-0.81,7.19-2.2l0.02-0.02l0.02-0.02c1.55-1.55,2.25-3.74,2.15-6.69v-13.55c1.55,0.11,3.16,0.16,4.87,0.16
			h3.32c10.04,0,18.16-1.8,24.14-5.34c6.02-3.73,9.01-10.24,8.9-19.36l0-3.4c0-9.1-2.98-15.6-8.87-19.32
			c-5.85-3.53-13.97-5.36-24.16-5.46l-3.34,0c-3.2,0-6.26,0.23-9.35,0.7C426.66,78.61,424.97,78.31,422.82,78.31L422.82,78.31z
			 M438.46,111.49c-2.16,0-3.74-0.44-4.68-1.31c-0.87-0.8-1.32-2.42-1.32-4.69v-0.95c0-2.27,0.46-3.89,1.32-4.69
			c0.94-0.87,2.52-1.31,4.68-1.31h0.95c2.16,0,3.74,0.44,4.68,1.31c0.86,0.8,1.32,2.42,1.32,4.69v0.95c0,2.27-0.46,3.89-1.32,4.69
			c-0.94,0.87-2.52,1.31-4.68,1.31H438.46L438.46,111.49z"/>
	</g>
</g>
<g>
	<g>
		<path class="st0" d="M524.21,146.81c-0.18,0-0.37,0-0.57-0.01l-1.59,0c-10.22-0.1-18.25-2.49-23.85-7.11
			c-5.68-4.7-8.44-12.69-8.44-24.42v-12.36h-5.81c-3.32,0-5.55-0.67-6.82-2.05c-1.28-1.39-1.91-3.86-1.91-7.54v-5.51
			c0-3.17,0.62-5.39,1.91-6.78c1.27-1.38,3.5-2.05,6.82-2.05h5.81V74.8c0.1-2.75,0.83-4.75,2.21-6.14c1.29-1.29,3.37-1.94,6.18-1.94
			c0.21,0,0.42,0,0.64,0.01l9,0c3.26,0.1,5.45,0.77,6.71,2.02c1.39,1.29,2.03,3.28,1.93,6.07l0,4.16h6.85
			c3.25,0,5.46,0.67,6.73,2.05c1.33,1.44,2,3.72,2,6.78v6.27c0,3.06-0.67,5.34-2,6.78c-1.27,1.38-3.47,2.05-6.73,2.05h-6.85v11.88
			c0,2.73,0.59,4.86,1.72,6.16c1.03,1.29,2.75,1.93,5.13,1.93h0.38c2.9,0,5.06,0.75,6.44,2.23c1.36,1.36,2.01,3.66,1.91,6.81v6.25
			c-0.2,3.13-0.92,5.3-2.19,6.68C528.63,146.15,526.74,146.81,524.21,146.81z"/>
	</g>
	<g>
		<path d="M498.16,67.47c0.2,0,0.41,0,0.62,0.01h9.02c2.95,0.09,5.04,0.67,6.17,1.8c1.24,1.14,1.8,2.95,1.71,5.51v4.94h7.6
			c2.94,0,5.04,0.57,6.17,1.81c1.14,1.23,1.8,3.33,1.8,6.27v6.27c0,2.95-0.67,5.04-1.8,6.27c-1.14,1.23-3.23,1.81-6.17,1.81h-7.6
			v12.63c0,2.95,0.67,5.23,1.9,6.65c1.14,1.42,3.04,2.19,5.7,2.19h0.38c2.66,0,4.66,0.67,5.89,1.99c1.24,1.24,1.81,3.33,1.71,6.27
			v6.27c-0.19,2.94-0.85,4.94-2,6.17c-1.06,1.15-2.77,1.72-5.07,1.72c-0.18,0-0.36,0-0.54-0.01h-1.62
			c-10.17-0.09-17.96-2.47-23.37-6.94c-5.51-4.56-8.17-12.44-8.17-23.84v-13.11h-6.56c-3.04,0-5.13-0.57-6.27-1.81
			c-1.14-1.23-1.71-3.61-1.71-7.03v-5.51c0-2.94,0.57-5.04,1.71-6.27c1.14-1.23,3.23-1.81,6.27-1.81h6.56V74.8
			c0.09-2.56,0.76-4.37,2-5.6C493.66,68.04,495.54,67.47,498.16,67.47 M498.16,65.97c-3.02,0-5.28,0.73-6.71,2.16
			c-1.53,1.53-2.33,3.69-2.43,6.61l0,0.03v0.03v3.44h-5.06c-3.54,0-5.95,0.75-7.37,2.29c-1.42,1.54-2.11,3.92-2.11,7.29v5.51
			c0,3.88,0.69,6.51,2.11,8.05c1.42,1.54,3.83,2.29,7.37,2.29h5.06v11.61c0,11.97,2.85,20.15,8.71,25
			c5.74,4.73,13.92,7.18,24.31,7.28l1.6,0c0.19,0.01,0.38,0.01,0.57,0.01c2.74,0,4.82-0.74,6.17-2.2c1.4-1.51,2.18-3.84,2.39-7.1
			l0-0.05v-0.05v-6.27c0.11-3.35-0.59-5.75-2.13-7.31c-1.52-1.63-3.87-2.45-6.97-2.45h-0.38c-2.14,0-3.67-0.55-4.53-1.62l-0.02-0.02
			l-0.02-0.02c-1-1.16-1.53-3.12-1.53-5.67v-11.13h6.1c3.48,0,5.86-0.75,7.28-2.29c1.46-1.58,2.2-4.04,2.2-7.29v-6.27
			c0-3.25-0.74-5.7-2.2-7.29c-1.42-1.54-3.8-2.29-7.28-2.29h-6.1v-3.41c0.11-2.99-0.6-5.16-2.17-6.62c-1.4-1.38-3.75-2.11-7.17-2.22
			l-9.07,0C498.6,65.97,498.38,65.97,498.16,65.97L498.16,65.97z"/>
	</g>
</g>
<g>
	<g>
		<path class="st0" d="M566.8,146.8c-10.19-0.09-18.24-2.48-23.94-7.1c-5.62-4.74-8.35-12.72-8.35-24.43v-4.46
			c0-11.7,2.73-19.69,8.34-24.42c5.71-4.63,13.76-7.02,23.94-7.11h3.33c10.13,0.1,18.14,2.49,23.84,7.1
			c5.61,4.72,8.45,12.94,8.45,24.43v4.46c0,11.68-2.79,19.67-8.54,24.42c-5.7,4.62-13.69,7.01-23.75,7.11h0H566.8z M567.94,103.19
			c-2.37,0-4.03,0.68-5.1,2.08c-1.1,1.35-1.65,3.75-1.65,7.14v1.24c0,3.39,0.55,5.79,1.64,7.13c1.08,1.42,2.75,2.1,5.12,2.1h0.95
			c2.36,0,4.03-0.68,5.1-2.08c1.1-1.35,1.65-3.75,1.65-7.14v-1.24c0-3.39-0.55-5.79-1.64-7.13c-1.08-1.42-2.75-2.1-5.12-2.1H567.94z
			"/>
	</g>
	<g>
		<path d="M570.13,80.02c10.07,0.1,17.86,2.47,23.37,6.94c5.42,4.56,8.17,12.45,8.17,23.85v4.46c0,11.4-2.75,19.29-8.26,23.84
			c-5.51,4.47-13.3,6.84-23.28,6.94h-3.33c-10.17-0.09-17.96-2.47-23.46-6.94c-5.42-4.56-8.08-12.44-8.08-23.84v-4.46
			c0-11.4,2.66-19.29,8.08-23.85c5.51-4.46,13.3-6.84,23.46-6.94H570.13 M567.94,123.63h0.95c2.57,0,4.47-0.76,5.7-2.38
			c1.24-1.52,1.81-4.09,1.81-7.6v-1.24c0-3.51-0.57-6.08-1.81-7.6c-1.23-1.62-3.13-2.38-5.7-2.38h-0.95c-2.57,0-4.47,0.76-5.7,2.38
			c-1.24,1.52-1.81,4.08-1.81,7.6v1.24c0,3.51,0.57,6.08,1.81,7.6C563.48,122.87,565.38,123.63,567.94,123.63 M570.13,78.52
			L570.13,78.52h-3.33c-10.37,0.1-18.58,2.54-24.41,7.27c-5.81,4.9-8.63,13.07-8.63,25.01v4.46c0,11.94,2.82,20.11,8.61,24.99
			c5.85,4.75,14.06,7.19,24.42,7.29l3.34,0c10.24-0.1,18.39-2.54,24.22-7.27c5.94-4.91,8.82-13.09,8.82-25.01v-4.46
			c0-11.72-2.93-20.13-8.7-24.99C588.61,81.06,580.43,78.62,570.13,78.52L570.13,78.52L570.13,78.52z M567.94,122.13
			c-2.11,0-3.59-0.58-4.51-1.79c-1-1.24-1.5-3.47-1.5-6.69v-1.24c0-3.22,0.49-5.45,1.47-6.65c0.95-1.24,2.42-1.82,4.54-1.82h0.95
			c2.12,0,3.59,0.58,4.51,1.79c1,1.23,1.5,3.47,1.5,6.69v1.24c0,3.22-0.49,5.45-1.47,6.65c-0.95,1.24-2.42,1.82-4.54,1.82H567.94
			L567.94,122.13z"/>
	</g>
</g>
<g>
	<path class="st1" d="M639.24,146.9c-2.81,0-4.89-0.65-6.18-1.94c-1.39-1.39-2.11-3.39-2.21-6.11l0-51.15h-17.49
		c-3.32,0-5.55-0.67-6.82-2.05c-1.29-1.39-1.91-3.61-1.91-6.78v-8.74c0-3.62,0.62-6.05,1.91-7.44c1.27-1.38,3.5-2.05,6.82-2.05
		h61.18c3.21,0,5.44,0.66,6.8,2.02c1.29,1.39,1.93,3.64,1.93,6.71v9.5c0,3.17-0.62,5.39-1.91,6.78c-1.38,1.38-3.61,2.05-6.82,2.05
		h-15.97v51.12c0.1,2.76-0.54,4.75-1.95,6.06c-1.24,1.24-3.42,1.9-6.66,2h-10.09C639.66,146.9,639.45,146.9,639.24,146.9z"/>
	<path d="M674.53,61.4c2.95,0,5.04,0.57,6.27,1.8c1.14,1.24,1.71,3.33,1.71,6.18v9.5c0,2.95-0.57,5.04-1.71,6.27
		c-1.24,1.24-3.33,1.81-6.27,1.81h-16.72v51.87c0.09,2.56-0.48,4.37-1.71,5.51c-1.14,1.14-3.23,1.71-6.18,1.8h-10.07
		c-0.21,0.01-0.42,0.01-0.62,0.01c-2.62,0-4.5-0.57-5.65-1.72c-1.24-1.24-1.9-3.04-2-5.6V86.96h-18.24c-3.04,0-5.13-0.57-6.27-1.81
		c-1.14-1.23-1.71-3.32-1.71-6.27v-8.74c0-3.42,0.57-5.7,1.71-6.94c1.14-1.23,3.23-1.8,6.27-1.8H674.53 M674.53,59.9h-61.18
		c-3.54,0-5.95,0.75-7.37,2.29c-1.42,1.54-2.11,4.14-2.11,7.95v8.74c0,3.37,0.69,5.75,2.11,7.29c1.42,1.54,3.83,2.29,7.37,2.29
		h16.74v50.37v0.03l0,0.03c0.11,2.92,0.9,5.08,2.43,6.61c1.43,1.43,3.69,2.16,6.71,2.16c0.22,0,0.44,0,0.67-0.01l10.02,0
		c3.47-0.11,5.81-0.84,7.21-2.22c1.57-1.46,2.28-3.63,2.17-6.62V88.46h15.22c3.42,0,5.82-0.73,7.33-2.24l0.02-0.02l0.02-0.02
		c1.42-1.54,2.11-3.92,2.11-7.29v-9.5c0-3.26-0.71-5.68-2.11-7.19l-0.02-0.02l-0.02-0.02C680.35,60.63,677.95,59.9,674.53,59.9
		L674.53,59.9z"/>
</g>
<g>
	<path class="st1" d="M693.88,147c-2.77,0-4.82-0.65-6.11-1.94c-1.48-1.38-2.21-3.39-2.21-6.13V87.81c-0.1-3.17,0.55-5.44,1.95-6.73
		c1.24-1.24,3.42-1.9,6.66-2l8.29,0c0.29-0.01,0.6-0.02,0.9-0.02c2.07,0,3.75,0.28,4.99,0.84c3.12-0.58,6.35-0.74,9.38-0.82l1.64,0
		c0.17-0.01,0.35-0.01,0.54-0.01c2.46,0,4.29,0.63,5.6,1.94c1.33,1.44,2.02,3.62,2.12,6.68v6.29c0.2,3.08-0.42,5.38-1.83,6.8
		c-1.36,1.46-3.52,2.21-6.42,2.21h-0.48c-2.34,0-3.95,0.59-4.92,1.81c-0.96,1.22-1.56,3.02-1.74,5.2l0,28.92
		c0.1,2.76-0.53,4.75-1.95,6.06c-1.37,1.26-3.48,1.9-6.66,2h-9.14C694.29,146.99,694.09,147,693.88,147z"/>
	<path d="M703.37,79.81c2.05,0,3.73,0.29,4.89,0.87c2.95-0.57,6.08-0.76,9.5-0.85h1.62c0.18-0.01,0.36-0.01,0.54-0.01
		c2.28,0,3.92,0.57,5.07,1.72c1.14,1.23,1.81,3.23,1.9,6.17v6.27c0.19,2.94-0.38,5.03-1.62,6.27c-1.23,1.33-3.23,1.99-5.89,1.99
		h-0.48c-2.56,0-4.37,0.67-5.51,2.09c-1.04,1.33-1.71,3.23-1.9,5.61v28.98c0.1,2.56-0.47,4.37-1.71,5.51
		c-1.23,1.14-3.23,1.71-6.17,1.81h-9.12c-0.2,0.01-0.4,0.01-0.6,0.01c-2.55,0-4.43-0.57-5.58-1.72c-1.33-1.23-2-3.04-2-5.6V87.81
		c-0.09-2.94,0.47-5.04,1.71-6.18c1.14-1.14,3.23-1.71,6.17-1.8h8.27C702.77,79.82,703.07,79.81,703.37,79.81 M703.37,78.31
		c-0.3,0-0.61,0.01-0.93,0.02h-8.24c-3.47,0.11-5.81,0.84-7.21,2.22c-1.55,1.45-2.28,3.9-2.17,7.31l0,51.06
		c0,2.95,0.8,5.14,2.45,6.68c1.43,1.42,3.66,2.14,6.62,2.14c0.21,0,0.43,0,0.65-0.01l9.07,0c3.41-0.11,5.68-0.81,7.19-2.2
		c1.58-1.46,2.3-3.63,2.19-6.64v-28.89c0.17-2,0.71-3.64,1.58-4.74c0.52-0.65,1.54-1.52,4.33-1.52h0.48c3.1,0,5.45-0.83,6.97-2.45
		c1.56-1.57,2.24-4.05,2.03-7.36v-6.22c-0.11-3.29-0.86-5.63-2.3-7.19l-0.02-0.02l-0.02-0.02c-1.45-1.45-3.46-2.16-6.13-2.16
		c-0.18,0-0.37,0-0.57,0.01h-1.59c-3.03,0.08-6.22,0.24-9.31,0.79C707.13,78.59,705.42,78.31,703.37,78.31L703.37,78.31z"/>
</g>
<g>
	<path class="st1" d="M789.61,146.9c-0.21,0-0.41,0-0.63-0.01h-9.09c-1.66-0.08-3.36-0.24-4.77-0.83c-2.57,0.33-5.55,0.54-9.37,0.64
		h-3.35c-10.22-0.1-18.24-1.76-23.84-4.94c-5.61-3.15-8.45-8.87-8.45-16.99v-3.23c0-8.15,2.84-13.93,8.45-17.18
		c5.63-3.2,13.42-4.76,23.84-4.76h3.33c1.45,0,2.84,0,4.18,0.08c-0.21-0.33-0.48-0.7-0.79-1.13l-0.1-0.14
		c-0.65-0.79-2.18-1.21-4.52-1.21h-26.13c-2.95-0.1-5.07-0.86-6.35-2.24c-1.27-1.48-1.91-3.76-1.91-6.78v-0.28
		c0-3.19,0.64-5.32,2.02-6.71c1.29-1.29,3.2-1.94,5.69-1.94c0.19,0,0.38,0,0.57,0.01l27.33,0c10.13,0.1,18.14,2.49,23.84,7.1
		c5.61,4.72,8.45,12.94,8.45,24.43v28.03c-0.1,2.75-0.83,4.75-2.21,6.13C794.41,146.26,792.34,146.9,789.61,146.9z M763.55,116.49
		c-2.46,0-4.16,0.46-5.19,1.42c-1.05,0.89-1.56,2.48-1.56,4.77v0.95c0,2.22,0.52,3.79,1.54,4.65c1.13,0.95,2.88,1.44,5.22,1.44h0.95
		c2.33,0,4.09-0.48,5.22-1.44c1.02-0.86,1.54-2.43,1.54-4.65v-0.95c0-2.25-0.5-3.9-1.49-4.88c-1.01-0.85-2.79-1.3-5.27-1.3H763.55z"
		/>
	<path d="M737.83,80.01c0.18,0,0.36,0,0.54,0.01h27.36c10.07,0.1,17.86,2.47,23.37,6.94c5.42,4.56,8.17,12.45,8.17,23.85v28.03
		c-0.09,2.56-0.76,4.37-1.99,5.6c-1.23,1.15-3.12,1.72-5.67,1.72c-0.2,0-0.4,0-0.6-0.01h-9.12c-1.9-0.09-3.42-0.29-4.66-0.85
		c-2.85,0.38-6.08,0.57-9.5,0.67h-3.33c-10.17-0.1-17.96-1.71-23.46-4.85c-5.42-3.04-8.08-8.55-8.08-16.34v-3.23
		c0-7.88,2.66-13.39,8.08-16.53c5.51-3.13,13.3-4.65,23.46-4.65h3.33c1.9,0,3.71,0,5.42,0.19c-0.19-0.76-0.76-1.52-1.52-2.56
		c-0.86-1.04-2.57-1.52-5.13-1.52h-26.13c-2.66-0.09-4.66-0.76-5.79-2c-1.14-1.33-1.71-3.42-1.71-6.27v-0.28
		c0-2.95,0.57-4.94,1.8-6.18C733.82,80.58,735.54,80.01,737.83,80.01 M763.55,130.47h0.95c2.57,0,4.47-0.57,5.7-1.62
		c1.24-1.04,1.81-2.85,1.81-5.22v-0.95c0-2.47-0.57-4.28-1.71-5.42c-1.24-1.04-3.23-1.52-5.8-1.52h-0.95c-2.57,0-4.47,0.48-5.7,1.62
		c-1.24,1.04-1.81,2.85-1.81,5.32v0.95c0,2.38,0.57,4.18,1.81,5.22C759.08,129.9,760.98,130.47,763.55,130.47 M737.83,78.51
		c-2.69,0-4.79,0.73-6.22,2.16c-1.53,1.53-2.24,3.83-2.24,7.24v0.28c0,3.25,0.68,5.62,2.07,7.25l0.02,0.02l0.02,0.02
		c1.41,1.53,3.72,2.37,6.84,2.48l0.03,0h0.03h26.13c2.63,0,3.58,0.55,3.92,0.92c-0.88-0.02-1.77-0.02-2.69-0.02h-3.33
		c-10.55,0-18.47,1.59-24.21,4.85c-5.86,3.4-8.83,9.39-8.83,17.83v3.23c0,8.42,2.97,14.35,8.84,17.65
		c5.78,3.29,13.69,4.94,24.19,5.04l3.34,0c3.79-0.11,6.74-0.3,9.29-0.63c1.47,0.57,3.16,0.73,4.79,0.81l0.04,0h0.04h9.1
		c0.21,0.01,0.42,0.01,0.63,0.01c2.92,0,5.17-0.71,6.69-2.12l0.02-0.02l0.02-0.02c1.53-1.53,2.32-3.69,2.43-6.61l0-0.03v-0.03V110.8
		c0-11.72-2.93-20.13-8.7-24.99c-5.85-4.74-14.03-7.19-24.32-7.29l-27.35,0C738.2,78.51,738.02,78.51,737.83,78.51L737.83,78.51z
		 M763.55,128.97c-2.12,0-3.76-0.44-4.73-1.26c-1.05-0.89-1.27-2.71-1.27-4.08v-0.95c0-2.06,0.43-3.46,1.27-4.18l0.02-0.02
		l0.02-0.02c0.89-0.82,2.42-1.22,4.68-1.22h0.95c2.22,0,3.87,0.39,4.78,1.13c0.81,0.85,1.23,2.3,1.23,4.31v0.95
		c0,1.37-0.22,3.19-1.27,4.08c-0.97,0.82-2.61,1.26-4.73,1.26H763.55L763.55,128.97z"/>
</g>
<g>
	<path class="st1" d="M860,147c-0.2,0-0.41,0-0.62-0.01h-9.09c-2.3-0.1-3.93-0.43-5.14-1.01c-3.01,0.58-6.23,0.74-8.99,0.82h-3.35
		c-10.09-0.09-18.14-2.48-23.93-7.1c-5.71-4.72-8.55-12.94-8.45-24.44v-4.46c0-11.49,2.84-19.71,8.44-24.42
		c5.71-4.63,13.76-7.02,23.94-7.11h3.33c2.12,0,3.9,0.09,5.52,0.28v-9.98c0.1-3.2,0.85-5.45,2.24-6.73c1.34-1.34,3.81-2,7.54-2h8.36
		c3.16,0.1,5.34,0.76,6.68,2c1.33,1.44,1.95,3.62,1.95,6.73v69.35c-0.1,2.75-0.83,4.75-2.21,6.13C864.81,146.35,862.73,147,860,147z
		 M833.94,103.19c-2.36,0-4.03,0.68-5.1,2.08c-1.1,1.35-1.65,3.75-1.65,7.14v1.24c0,3.39,0.55,5.79,1.64,7.13
		c1.08,1.42,2.75,2.1,5.12,2.1h0.95c2.36,0,4.03-0.68,5.1-2.08c1.1-1.35,1.65-3.75,1.65-7.14v-1.24c0-3.39-0.55-5.79-1.64-7.13
		c-1.08-1.42-2.75-2.1-5.12-2.1H833.94z"/>
	<path d="M859.78,61.59c2.85,0.09,4.94,0.67,6.18,1.8c1.14,1.24,1.71,3.23,1.71,6.18v69.35c-0.1,2.56-0.76,4.37-2,5.6
		c-1.24,1.15-3.13,1.72-5.67,1.72c-0.2,0-0.39,0-0.6-0.01h-9.12c-2.09-0.1-3.8-0.38-5.04-1.05c-2.85,0.57-5.89,0.76-9.12,0.86h-3.32
		c-10.07-0.09-17.86-2.47-23.47-6.94c-5.51-4.56-8.26-12.44-8.17-23.84v-4.46c0-11.4,2.75-19.29,8.17-23.85
		c5.51-4.46,13.3-6.84,23.47-6.94h3.32c2.19,0,4.28,0.1,6.27,0.38V69.57c0.09-2.94,0.76-5.04,2-6.18c1.24-1.23,3.61-1.8,7.03-1.8
		H859.78 M833.94,123.63h0.95c2.56,0,4.46-0.76,5.7-2.38c1.23-1.52,1.8-4.09,1.8-7.6v-1.24c0-3.51-0.57-6.08-1.8-7.6
		c-1.24-1.62-3.14-2.38-5.7-2.38h-0.95c-2.57,0-4.46,0.76-5.7,2.38c-1.24,1.52-1.8,4.08-1.8,7.6v1.24c0,3.51,0.57,6.08,1.8,7.6
		C829.47,122.87,831.37,123.63,833.94,123.63 M859.8,60.09h-0.02h-8.36c-3.92,0-6.56,0.73-8.07,2.22c-1.52,1.42-2.35,3.84-2.46,7.21
		l0,9.19c-1.42-0.13-2.98-0.19-4.77-0.19h-3.32c-10.37,0.1-18.58,2.54-24.41,7.27c-5.8,4.88-8.73,13.29-8.73,25.01v4.46
		c-0.1,11.72,2.83,20.13,8.71,25c5.95,4.74,14.15,7.18,24.41,7.28l3.34,0c2.76-0.08,5.92-0.24,8.91-0.79
		c1.28,0.56,2.94,0.88,5.17,0.98l0.03,0h0.03h9.12c0.17,0.01,0.39,0.01,0.6,0.01c2.93,0,5.18-0.71,6.69-2.12l0.02-0.02l0.02-0.02
		c1.53-1.53,2.32-3.69,2.43-6.61l0-0.03v-0.03V69.57c0-3.3-0.69-5.66-2.11-7.19l-0.04-0.04l-0.04-0.04
		c-1.49-1.37-3.82-2.09-7.14-2.2L859.8,60.09L859.8,60.09z M833.94,122.13c-2.11,0-3.59-0.58-4.51-1.79c-1-1.23-1.5-3.47-1.5-6.69
		v-1.24c0-3.22,0.49-5.45,1.47-6.65c0.95-1.24,2.42-1.82,4.54-1.82h0.95c2.11,0,3.59,0.58,4.51,1.79c1,1.23,1.5,3.47,1.5,6.69v1.24
		c0,3.22-0.49,5.45-1.47,6.66c-0.95,1.24-2.42,1.82-4.54,1.82H833.94L833.94,122.13z"/>
</g>
<g>
	<path class="st1" d="M903,146.8c-10.19-0.09-18.24-2.48-23.94-7.1c-5.62-4.74-8.35-12.72-8.35-24.43v-4.46
		c0-11.7,2.73-19.69,8.34-24.42c5.71-4.63,13.76-7.02,23.94-7.11h3.33c10.13,0.1,18.14,2.49,23.84,7.1
		c5.61,4.72,8.45,12.94,8.45,24.43v2.18c0,3.79-0.63,6.26-1.93,7.56c-1.36,1.36-3.52,2.02-6.61,2.02H897.6
		c0.29,1.67,0.76,2.93,1.44,3.83c1.08,1.33,2.75,1.98,5.1,1.98h25.84c3.09,0,5.25,0.66,6.44,1.95c1.22,1.32,1.88,3.43,2.09,6.63
		l0,0.53c0,3.49-0.62,5.86-1.91,7.25c-1.38,1.38-3.54,2.05-6.63,2.05H903z M911.66,103.88c-0.23-1.55-0.72-2.83-1.47-3.83
		c-1.11-1.37-2.83-2.08-5.1-2.08h-0.95c-2.27,0-3.99,0.71-5.12,2.1c-0.67,0.89-1.14,2.15-1.42,3.81H911.66z"/>
	<path d="M906.33,80.02c10.07,0.1,17.86,2.47,23.37,6.94c5.42,4.56,8.17,12.45,8.17,23.85v2.18c0,3.51-0.57,5.89-1.71,7.03
		c-1.23,1.24-3.23,1.8-6.08,1.8h-33.34c0.29,2.28,0.85,3.9,1.71,5.04c1.23,1.52,3.13,2.28,5.7,2.28h25.84
		c2.85,0,4.85,0.57,5.89,1.71c1.14,1.24,1.71,3.33,1.9,6.17v0.48c0,3.32-0.57,5.51-1.71,6.75c-1.23,1.23-3.23,1.8-6.08,1.8H903
		c-10.17-0.09-17.96-2.47-23.46-6.94c-5.42-4.56-8.08-12.44-8.08-23.84v-4.46c0-11.4,2.66-19.29,8.08-23.85
		c5.51-4.46,13.3-6.84,23.46-6.94H906.33 M896.73,104.63h15.77c-0.19-2.28-0.85-3.89-1.71-5.03c-1.23-1.52-3.13-2.38-5.7-2.38h-0.95
		c-2.57,0-4.47,0.85-5.7,2.38C897.59,100.73,897.02,102.35,896.73,104.63 M906.34,78.52L906.34,78.52H903
		c-10.37,0.1-18.58,2.54-24.41,7.27c-5.81,4.9-8.63,13.07-8.63,25.01v4.46c0,11.94,2.82,20.11,8.61,24.99
		c5.85,4.75,14.06,7.19,24.42,7.29l26.99,0c3.29,0,5.63-0.73,7.14-2.24l0.02-0.02l0.02-0.02c1.44-1.56,2.11-4.02,2.11-7.76v-0.48
		v-0.05l0-0.05c-0.23-3.39-0.95-5.64-2.29-7.09c-1.33-1.45-3.69-2.19-6.99-2.19h-25.84c-2.1,0-3.57-0.56-4.52-1.7
		c-0.48-0.65-0.85-1.51-1.11-2.61h31.56c3.3,0,5.63-0.73,7.14-2.24c1.45-1.45,2.15-4.09,2.15-8.09v-2.18
		c0-11.72-2.93-20.13-8.7-24.99C924.81,81.06,916.63,78.62,906.34,78.52L906.34,78.52L906.34,78.52z M899.63,100.51
		c0.98-1.19,2.5-1.8,4.52-1.8h0.95c2.02,0,3.54,0.61,4.52,1.8c0.52,0.71,0.91,1.58,1.15,2.61h-12.24
		C898.78,102.02,899.15,101.16,899.63,100.51L899.63,100.51z"/>
</g>
<g>
	<path class="st1" d="M949.33,147c-2.77,0-4.82-0.65-6.11-1.94c-1.48-1.38-2.21-3.39-2.21-6.13V87.81c-0.1-3.17,0.55-5.44,1.95-6.73
		c1.24-1.24,3.42-1.9,6.66-2l8.29,0c0.29-0.01,0.6-0.02,0.9-0.02c2.07,0,3.75,0.28,4.99,0.84c3.12-0.58,6.35-0.74,9.38-0.82l1.64,0
		c0.17-0.01,0.35-0.01,0.54-0.01c2.46,0,4.29,0.63,5.6,1.94c1.33,1.44,2.02,3.62,2.12,6.68v6.29c0.2,3.08-0.42,5.38-1.83,6.8
		c-1.36,1.46-3.52,2.21-6.42,2.21h-0.48c-2.34,0-3.95,0.59-4.92,1.81c-0.96,1.22-1.56,3.02-1.74,5.2l0,28.92
		c0.1,2.76-0.53,4.75-1.95,6.06c-1.37,1.26-3.48,1.9-6.66,2h-9.14C949.75,146.99,949.54,147,949.33,147z"/>
	<path d="M958.82,79.81c2.05,0,3.73,0.29,4.89,0.87c2.95-0.57,6.08-0.76,9.5-0.85h1.62c0.18-0.01,0.36-0.01,0.54-0.01
		c2.28,0,3.92,0.57,5.07,1.72c1.14,1.23,1.81,3.23,1.9,6.17v6.27c0.19,2.94-0.38,5.03-1.62,6.27c-1.23,1.33-3.23,1.99-5.89,1.99
		h-0.48c-2.56,0-4.37,0.67-5.51,2.09c-1.04,1.33-1.71,3.23-1.9,5.61v28.98c0.1,2.56-0.47,4.37-1.71,5.51
		c-1.23,1.14-3.23,1.71-6.17,1.81h-9.12c-0.2,0.01-0.4,0.01-0.6,0.01c-2.55,0-4.43-0.57-5.58-1.72c-1.33-1.23-2-3.04-2-5.6V87.81
		c-0.09-2.94,0.47-5.04,1.71-6.18c1.14-1.14,3.23-1.71,6.17-1.8h8.27C958.22,79.82,958.52,79.81,958.82,79.81 M958.82,78.31
		c-0.3,0-0.61,0.01-0.93,0.02h-8.24c-3.47,0.11-5.81,0.84-7.21,2.22c-1.55,1.45-2.28,3.9-2.17,7.31l0,51.06
		c0,2.95,0.8,5.14,2.45,6.68c1.43,1.42,3.66,2.14,6.62,2.14c0.21,0,0.43,0,0.65-0.01l9.07,0c3.41-0.11,5.68-0.81,7.19-2.2
		c1.58-1.46,2.3-3.63,2.19-6.64v-28.89c0.17-2,0.71-3.64,1.58-4.74c0.52-0.65,1.54-1.52,4.33-1.52h0.48c3.1,0,5.45-0.83,6.97-2.45
		c1.56-1.57,2.24-4.05,2.03-7.36v-6.22c-0.11-3.29-0.86-5.63-2.3-7.19l-0.02-0.02l-0.02-0.02c-1.45-1.45-3.46-2.16-6.13-2.16
		c-0.18,0-0.37,0-0.57,0.01h-1.59c-3.03,0.08-6.22,0.24-9.31,0.79C962.58,78.59,960.88,78.31,958.82,78.31L958.82,78.31z"/>
</g>
</svg>
